<?xml version="1.0" encoding="utf-8"?>
<!-- Generator: Adobe Illustrator 16.0.0, SVG Export Plug-In . SVG Version: 6.00 Build 0)  -->
<!DOCTYPE svg PUBLIC "-//W3C//DTD SVG 1.1//EN" "http://www.w3.org/Graphics/SVG/1.1/DTD/svg11.dtd">
<svg version="1.1" id="圖層_1" xmlns="http://www.w3.org/2000/svg" xmlns:xlink="http://www.w3.org/1999/xlink" x="0px" y="0px"
	 width="305px" height="81px" viewBox="0 0 305 81" enable-background="new 0 0 305 81" xml:space="preserve">
<path fill="#FFFFFF" d="M169.201,62.833c0,9.108-7.387,16.5-16.499,16.5c-9.11,0-16.5-7.392-16.5-16.5c0-9.11,7.39-16.5,16.5-16.5
	C161.814,46.333,169.201,53.723,169.201,62.833z"/>
<path fill="#71C60A" d="M303.734,62.833c0,9.108-7.386,16.5-16.498,16.5c-9.11,0-16.5-7.392-16.5-16.5c0-9.11,7.39-16.5,16.5-16.5
	C296.349,46.333,303.734,53.723,303.734,62.833z"/>
<path fill="#ED1C24" d="M34.264,62.833c0,9.108-7.386,16.5-16.5,16.5c-9.11,0-16.499-7.392-16.499-16.5
	c0-9.11,7.389-16.5,16.499-16.5C26.878,46.333,34.264,53.723,34.264,62.833z"/>
<path fill="#6591A9" d="M124.201,62.833c0,9.108-7.387,16.5-16.499,16.5c-9.11,0-16.5-7.392-16.5-16.5c0-9.11,7.39-16.5,16.5-16.5
	C116.814,46.333,124.201,53.723,124.201,62.833z"/>
<path fill="#B368AD" d="M79.232,62.833c0,9.108-7.386,16.5-16.499,16.5c-9.11,0-16.499-7.392-16.499-16.5
	c0-9.11,7.389-16.5,16.499-16.5C71.847,46.333,79.232,53.723,79.232,62.833z"/>
<path fill="#FBB7B7" d="M213.967,62.833c0,9.108-7.387,16.5-16.5,16.5c-9.109,0-16.499-7.392-16.499-16.5
	c0-9.11,7.39-16.5,16.499-16.5C206.58,46.333,213.967,53.723,213.967,62.833z"/>
<path fill="#FFFF00" d="M258.733,62.833c0,9.108-7.387,16.5-16.499,16.5c-9.11,0-16.5-7.392-16.5-16.5c0-9.11,7.39-16.5,16.5-16.5
	C251.347,46.333,258.733,53.723,258.733,62.833z"/>
<g>
	<path d="M30.147,75.214c6.823-6.826,6.823-17.936,0-24.762c-6.828-6.825-17.936-6.825-24.761-0.001
		c-6.829,6.827-6.829,17.937,0.001,24.766C12.212,82.039,23.319,82.039,30.147,75.214L30.147,75.214z M7.297,52.36
		c5.771-5.772,15.165-5.773,20.941,0.003c5.772,5.771,5.772,15.168-0.003,20.941c-5.773,5.772-15.167,5.772-20.938,0.001
		C1.521,67.531,1.521,58.134,7.297,52.36L7.297,52.36z M9.74,71.307l16.053,0.021c0.156,0,0.307-0.089,0.392-0.242
		c0.087-0.147,0.104-0.34,0.045-0.507c-1.363-3.753-4.697-6.179-8.487-6.179c-3.71,0-7.022,2.414-8.438,6.149
		c-0.062,0.166-0.051,0.362,0.04,0.512C9.431,71.217,9.581,71.306,9.74,71.307L9.74,71.307z M21.442,66.185
		c0.871,0.38,1.656,0.894,2.313,1.521h-2.313V66.185z M21.442,68.798h3.228v1.633l-3.228-0.003V68.798z M17.039,65.459
		c0.242-0.017,0.482-0.031,0.724-0.031c0.872,0,1.712,0.121,2.503,0.338v1.939h-3.227V65.459z M17.039,68.798h3.227v1.63
		l-3.227-0.007V68.798z M12.635,67.042c0.935-0.675,2.036-1.161,3.229-1.414v2.077h-3.229V67.042z M12.635,68.798h3.229v1.623
		l-3.229-0.006V68.798z M10.261,69.866c0.176-0.378,0.391-0.73,0.628-1.068h0.572v1.616h-0.813c-0.144,0-0.273-0.067-0.354-0.18
		C10.215,70.129,10.207,69.989,10.261,69.866L10.261,69.866z M9.797,57.416c-0.406-0.404-0.406-1.061,0-1.47
		c0.407-0.404,1.063-0.404,1.47,0l3.117,3.124c0.006,0.004,0.01,0.01,0.016,0.015c0.382,0.371,0.623,0.893,0.623,1.467
		c0,1.132-0.919,2.048-2.047,2.048c-1.13,0-2.05-0.916-2.05-2.048c0-0.554,0.225-1.056,0.582-1.425L9.797,57.416z M20.838,60.552
		c0-0.574,0.239-1.096,0.621-1.467c0.006-0.005,0.008-0.011,0.013-0.015l3.124-3.124c0.405-0.404,1.062-0.404,1.47,0
		c0.403,0.409,0.403,1.065-0.003,1.47l-1.709,1.711c0.355,0.369,0.578,0.871,0.578,1.425c0,1.132-0.916,2.048-2.044,2.048
		C21.758,62.6,20.838,61.684,20.838,60.552L20.838,60.552z M20.838,60.552"/>
</g>
<g>
	<path d="M165.084,75.214c6.824-6.826,6.824-17.936,0-24.762c-6.828-6.825-17.937-6.825-24.764-0.001
		c-6.825,6.827-6.825,17.937,0,24.766C147.147,82.039,158.256,82.039,165.084,75.214L165.084,75.214z M142.233,52.36
		c5.772-5.772,15.166-5.773,20.941,0.003c5.771,5.771,5.771,15.168-0.002,20.941c-5.773,5.772-15.167,5.772-20.939,0.001
		C136.459,67.531,136.459,58.134,142.233,52.36L142.233,52.36z M142.233,52.36"/>
	<path d="M144.658,59.134h4.412c0.573,0,1.038-0.465,1.038-1.037c0-0.577-0.465-1.04-1.038-1.04h-4.412
		c-0.575,0-1.04,0.463-1.04,1.04C143.618,58.669,144.083,59.134,144.658,59.134L144.658,59.134z M144.658,59.134"/>
	<path d="M156.334,59.134h4.413c0.574,0,1.038-0.465,1.038-1.037c0-0.577-0.464-1.04-1.038-1.04h-4.413
		c-0.572,0-1.041,0.463-1.041,1.04C155.293,58.669,155.762,59.134,156.334,59.134L156.334,59.134z M156.334,59.134"/>
	<path d="M145.242,68.773c0,0.634,0.514,1.149,1.147,1.149h12.628c0.631,0,1.147-0.516,1.147-1.149c0-0.633-0.517-1.146-1.147-1.146
		H146.39C145.756,67.627,145.242,68.141,145.242,68.773L145.242,68.773z M145.242,68.773"/>
</g>
<g>
	<path d="M299.618,50.452c-6.828-6.825-17.937-6.825-24.763-0.001c-6.828,6.827-6.828,17.937,0,24.766
		c6.826,6.822,17.935,6.822,24.762-0.003C306.442,68.388,306.442,57.278,299.618,50.452L299.618,50.452z M297.708,73.305
		c-5.772,5.772-15.17,5.775-20.943,0.001s-5.773-15.172,0-20.945c5.773-5.771,15.168-5.773,20.943,0.003
		C303.481,58.134,303.481,67.531,297.708,73.305L297.708,73.305z M295.657,65.484c0.088,0.133,0.103,0.304,0.038,0.447
		c-1.412,3.27-4.724,5.383-8.438,5.383c-3.788,0-7.116-2.123-8.482-5.408c-0.064-0.147-0.045-0.312,0.041-0.443
		c0.089-0.13,0.236-0.21,0.396-0.21h0.002l16.05,0.02C295.422,65.272,295.568,65.351,295.657,65.484L295.657,65.484z
		 M280.706,58.097c0-1.13,0.915-2.049,2.046-2.049c1.129,0,2.043,0.919,2.043,2.049c0,1.131-0.914,2.045-2.043,2.045
		C281.621,60.142,280.706,59.228,280.706,58.097L280.706,58.097z M289.986,58.097c0-1.13,0.916-2.049,2.046-2.049
		c1.128,0,2.045,0.919,2.045,2.049c0,1.131-0.914,2.045-2.045,2.045C290.902,60.142,289.986,59.228,289.986,58.097L289.986,58.097z
		 M289.986,58.097"/>
</g>
<g>
	<g>
		<path d="M120.083,50.452c-6.826-6.825-17.935-6.825-24.762-0.001c-6.826,6.827-6.826,17.937,0,24.766
			c6.827,6.822,17.936,6.822,24.76-0.003C126.908,68.388,126.908,57.278,120.083,50.452L120.083,50.452z M118.173,73.305
			c-5.771,5.772-15.166,5.775-20.939,0.001c-5.775-5.774-5.775-15.172,0-20.945c5.773-5.771,15.165-5.773,20.939,0.003
			C123.943,58.134,123.943,67.531,118.173,73.305L118.173,73.305z M115.621,69.755c0.213,0.503-0.016,1.087-0.519,1.299
			c-0.501,0.22-1.084-0.011-1.303-0.515c-0.953-2.207-3.211-3.632-5.748-3.632c-2.596,0-4.869,1.425-5.784,3.632
			c-0.153,0.378-0.523,0.612-0.913,0.612c-0.125,0-0.256-0.029-0.38-0.079c-0.505-0.211-0.742-0.789-0.533-1.293
			c1.223-2.949,4.21-4.854,7.61-4.854C111.381,64.926,114.351,66.819,115.621,69.755L115.621,69.755z M101.17,58.097
			c0-1.13,0.917-2.049,2.048-2.049c1.129,0,2.047,0.919,2.047,2.049c0,1.131-0.918,2.045-2.047,2.045
			C102.087,60.142,101.17,59.228,101.17,58.097L101.17,58.097z M110.45,58.097c0-1.13,0.917-2.049,2.047-2.049
			s2.047,0.919,2.047,2.049c0,1.131-0.915,2.045-2.047,2.045C111.367,60.142,110.45,59.228,110.45,58.097L110.45,58.097z
			 M110.45,58.097"/>
	</g>
</g>
<g>
	<path d="M254.616,50.452c-6.827-6.825-17.936-6.825-24.762-0.001c-6.828,6.827-6.828,17.937,0,24.766
		c6.826,6.822,17.935,6.822,24.76-0.003C261.44,68.388,261.44,57.278,254.616,50.452L254.616,50.452z M252.706,73.305
		c-5.772,5.772-15.169,5.775-20.943,0.001c-5.775-5.774-5.772-15.172,0-20.945c5.774-5.771,15.17-5.773,20.946,0.003
		C258.479,58.134,258.479,67.531,252.706,73.305L252.706,73.305z M235.704,58.097c0-1.13,0.913-2.049,2.047-2.049
		c1.131,0,2.043,0.919,2.043,2.049c0,1.131-0.912,2.045-2.043,2.045C236.617,60.142,235.704,59.228,235.704,58.097L235.704,58.097z
		 M244.982,58.097c0-1.13,0.92-2.049,2.048-2.049c1.13,0,2.046,0.919,2.046,2.049c0,1.131-0.914,2.045-2.046,2.045
		C245.902,60.142,244.982,59.228,244.982,58.097L244.982,58.097z M249.818,66.475c-1.268,2.936-4.236,4.828-7.564,4.828
		c-3.399,0-6.388-1.901-7.612-4.852c-0.208-0.503,0.028-1.082,0.535-1.294c0.126-0.051,0.253-0.075,0.378-0.075
		c0.392,0,0.757,0.229,0.917,0.609c0.918,2.207,3.185,3.633,5.782,3.633c2.537,0,4.794-1.426,5.748-3.635
		c0.218-0.501,0.801-0.732,1.302-0.515C249.806,65.393,250.039,65.976,249.818,66.475L249.818,66.475z M249.818,66.475"/>
</g>
<g>
	<path d="M75.095,50.477c-6.817-6.815-17.905-6.815-24.717,0c-6.817,6.813-6.817,17.901,0,24.715
		c6.812,6.814,17.899,6.814,24.715-0.002C81.904,68.378,81.904,57.29,75.095,50.477L75.095,50.477z M73.186,73.284
		c-5.762,5.767-15.143,5.767-20.902,0.002c-5.764-5.763-5.763-15.143,0-20.904c5.76-5.765,15.138-5.766,20.902,0.001
		C78.949,58.144,78.949,67.523,73.186,73.284L73.186,73.284z M70.181,68.762c0,0.634-0.512,1.146-1.145,1.146H56.435
		c-0.634,0-1.147-0.513-1.147-1.146c0-0.63,0.514-1.144,1.147-1.144h12.603C69.669,67.618,70.181,68.132,70.181,68.762
		L70.181,68.762z M56.322,58.986l-1.706-1.708c-0.404-0.405-0.404-1.06,0-1.466c0.404-0.405,1.063-0.405,1.466,0l3.115,3.114
		c0.006,0.005,0.008,0.011,0.01,0.017c0.384,0.37,0.622,0.891,0.622,1.464c0,1.129-0.914,2.044-2.042,2.044
		c-1.127,0-2.041-0.915-2.041-2.044C55.746,59.855,55.965,59.356,56.322,58.986L56.322,58.986z M70.854,55.813
		c0.403,0.406,0.403,1.061,0,1.467l-1.708,1.707c0.355,0.37,0.577,0.869,0.577,1.424c0,1.126-0.913,2.041-2.043,2.041
		c-1.127,0-2.043-0.915-2.043-2.041c0-0.576,0.237-1.095,0.62-1.467c0.006-0.006,0.009-0.009,0.014-0.016l3.115-3.115
		C69.792,55.407,70.449,55.407,70.854,55.813L70.854,55.813z M70.854,55.813"/>
</g>
<g>
	<path d="M185.251,50.616c-6.732,6.737-6.732,17.696,0.002,24.435c6.732,6.734,17.693,6.734,24.429-0.002s6.734-17.695,0.002-24.43
		C202.946,43.883,191.985,43.883,185.251,50.616L185.251,50.616z M207.797,73.164c-5.694,5.694-14.964,5.696-20.661,0.003
		c-5.696-5.699-5.695-14.967,0-20.665c5.697-5.694,14.967-5.695,20.662,0.001C213.494,58.2,213.491,67.468,207.797,73.164
		L207.797,73.164z M193.884,59.186h-4.355c-0.563,0-1.024-0.461-1.024-1.026c0-0.568,0.461-1.023,1.024-1.023h4.355
		c0.564,0,1.024,0.455,1.024,1.023C194.908,58.725,194.448,59.186,193.884,59.186L193.884,59.186z M206.428,58.159
		c0,0.565-0.46,1.026-1.023,1.026h-4.356c-0.563,0-1.023-0.461-1.023-1.026c0-0.568,0.46-1.023,1.023-1.023h4.356
		C205.968,57.136,206.428,57.591,206.428,58.159L206.428,58.159z M204.95,66.428c-1.249,2.893-4.182,4.763-7.463,4.763
		c-3.354,0-6.302-1.88-7.513-4.786c-0.206-0.499,0.03-1.07,0.53-1.276c0.121-0.054,0.249-0.075,0.374-0.075
		c0.384,0,0.744,0.226,0.901,0.601c0.904,2.179,3.145,3.586,5.706,3.586c2.502,0,4.728-1.409,5.673-3.586
		c0.211-0.497,0.789-0.725,1.282-0.512C204.938,65.358,205.167,65.932,204.95,66.428L204.95,66.428z M204.95,66.428"/>
</g>
<g>
	<g>
		<path fill="#999999" d="M30.147,30.881c6.823-6.826,6.823-17.936,0-24.762C23.319-0.706,12.212-0.706,5.387,6.118
			c-6.829,6.827-6.829,17.937,0.001,24.766C12.212,37.706,23.319,37.706,30.147,30.881L30.147,30.881z M7.297,8.027
			c5.771-5.772,15.165-5.773,20.941,0.003c5.772,5.771,5.772,15.168-0.003,20.941c-5.773,5.772-15.167,5.772-20.938,0.001
			C1.521,23.198,1.521,13.801,7.297,8.027L7.297,8.027z M9.74,26.974l16.053,0.021c0.156,0,0.307-0.089,0.392-0.242
			c0.087-0.147,0.104-0.34,0.045-0.507c-1.363-3.753-4.697-6.179-8.487-6.179c-3.71,0-7.022,2.414-8.438,6.149
			c-0.062,0.166-0.051,0.362,0.04,0.512C9.431,26.884,9.581,26.973,9.74,26.974L9.74,26.974z M21.442,21.852
			c0.871,0.38,1.656,0.894,2.313,1.521h-2.313V21.852z M21.442,24.465h3.228v1.633l-3.228-0.003V24.465z M17.039,21.126
			c0.242-0.017,0.482-0.031,0.724-0.031c0.872,0,1.712,0.121,2.503,0.338v1.939h-3.227V21.126z M17.039,24.465h3.227v1.63
			l-3.227-0.007V24.465z M12.635,22.709c0.935-0.675,2.036-1.161,3.229-1.414v2.077h-3.229V22.709z M12.635,24.465h3.229v1.623
			l-3.229-0.006V24.465z M10.261,25.533c0.176-0.378,0.391-0.73,0.628-1.068h0.572v1.616h-0.813c-0.144,0-0.273-0.067-0.354-0.18
			C10.215,25.796,10.207,25.656,10.261,25.533L10.261,25.533z M9.797,13.083c-0.406-0.404-0.406-1.061,0-1.47
			c0.407-0.404,1.063-0.404,1.47,0l3.117,3.124c0.006,0.004,0.01,0.01,0.016,0.015c0.382,0.371,0.623,0.893,0.623,1.467
			c0,1.132-0.919,2.048-2.047,2.048c-1.13,0-2.05-0.916-2.05-2.048c0-0.554,0.225-1.056,0.582-1.425L9.797,13.083z M20.838,16.219
			c0-0.574,0.239-1.096,0.621-1.467c0.006-0.005,0.008-0.011,0.013-0.015l3.124-3.124c0.405-0.404,1.062-0.404,1.47,0
			c0.403,0.409,0.403,1.065-0.003,1.47l-1.709,1.711c0.355,0.369,0.578,0.871,0.578,1.425c0,1.132-0.916,2.048-2.044,2.048
			C21.758,18.267,20.838,17.351,20.838,16.219L20.838,16.219z M20.838,16.219"/>
	</g>
	<g>
		<path fill="#999999" d="M165.084,30.881c6.824-6.826,6.824-17.936,0-24.762c-6.828-6.825-17.937-6.825-24.764-0.001
			c-6.825,6.827-6.825,17.937,0,24.766C147.147,37.706,158.256,37.706,165.084,30.881L165.084,30.881z M142.233,8.027
			c5.772-5.772,15.166-5.773,20.941,0.003c5.771,5.771,5.771,15.168-0.002,20.941c-5.773,5.772-15.167,5.772-20.939,0.001
			C136.459,23.198,136.459,13.801,142.233,8.027L142.233,8.027z M142.233,8.027"/>
		<path fill="#999999" d="M144.658,14.801h4.412c0.573,0,1.038-0.465,1.038-1.037c0-0.577-0.465-1.04-1.038-1.04h-4.412
			c-0.575,0-1.04,0.463-1.04,1.04C143.618,14.336,144.083,14.801,144.658,14.801L144.658,14.801z M144.658,14.801"/>
		<path fill="#999999" d="M156.334,14.801h4.413c0.574,0,1.038-0.465,1.038-1.037c0-0.577-0.464-1.04-1.038-1.04h-4.413
			c-0.572,0-1.041,0.463-1.041,1.04C155.293,14.336,155.762,14.801,156.334,14.801L156.334,14.801z M156.334,14.801"/>
		<path fill="#999999" d="M145.242,24.44c0,0.634,0.514,1.149,1.147,1.149h12.628c0.631,0,1.147-0.516,1.147-1.149
			c0-0.633-0.517-1.146-1.147-1.146H146.39C145.756,23.294,145.242,23.808,145.242,24.44L145.242,24.44z M145.242,24.44"/>
	</g>
	<g>
		<path fill="#999999" d="M299.618,6.119c-6.828-6.825-17.937-6.825-24.763-0.001c-6.828,6.827-6.828,17.937,0,24.766
			c6.826,6.822,17.935,6.822,24.762-0.003C306.442,24.055,306.442,12.945,299.618,6.119L299.618,6.119z M297.708,28.972
			c-5.772,5.772-15.17,5.775-20.943,0.001s-5.773-15.172,0-20.945c5.773-5.771,15.168-5.773,20.943,0.003
			C303.481,13.801,303.481,23.198,297.708,28.972L297.708,28.972z M295.657,21.151c0.088,0.133,0.103,0.304,0.038,0.447
			c-1.412,3.27-4.724,5.383-8.438,5.383c-3.788,0-7.116-2.123-8.482-5.408c-0.064-0.147-0.045-0.312,0.041-0.443
			c0.089-0.13,0.236-0.21,0.396-0.21h0.002l16.05,0.02C295.422,20.939,295.568,21.018,295.657,21.151L295.657,21.151z
			 M280.706,13.764c0-1.13,0.915-2.049,2.046-2.049c1.129,0,2.043,0.919,2.043,2.049c0,1.131-0.914,2.045-2.043,2.045
			C281.621,15.809,280.706,14.895,280.706,13.764L280.706,13.764z M289.986,13.764c0-1.13,0.916-2.049,2.046-2.049
			c1.128,0,2.045,0.919,2.045,2.049c0,1.131-0.914,2.045-2.045,2.045C290.902,15.809,289.986,14.895,289.986,13.764L289.986,13.764z
			 M289.986,13.764"/>
	</g>
	<g>
		<g>
			<path fill="#999999" d="M120.083,6.119c-6.826-6.825-17.935-6.825-24.762-0.001c-6.826,6.827-6.826,17.937,0,24.766
				c6.827,6.822,17.936,6.822,24.76-0.003C126.908,24.055,126.908,12.945,120.083,6.119L120.083,6.119z M118.173,28.972
				c-5.771,5.772-15.166,5.775-20.939,0.001c-5.775-5.774-5.775-15.172,0-20.945c5.773-5.771,15.165-5.773,20.939,0.003
				C123.943,13.801,123.943,23.198,118.173,28.972L118.173,28.972z M115.621,25.422c0.213,0.503-0.016,1.087-0.519,1.299
				c-0.501,0.22-1.084-0.011-1.303-0.515c-0.953-2.207-3.211-3.632-5.748-3.632c-2.596,0-4.869,1.425-5.784,3.632
				c-0.153,0.378-0.523,0.612-0.913,0.612c-0.125,0-0.256-0.029-0.38-0.079c-0.505-0.211-0.742-0.789-0.533-1.293
				c1.223-2.949,4.21-4.854,7.61-4.854C111.381,20.593,114.351,22.486,115.621,25.422L115.621,25.422z M101.17,13.764
				c0-1.13,0.917-2.049,2.048-2.049c1.129,0,2.047,0.919,2.047,2.049c0,1.131-0.918,2.045-2.047,2.045
				C102.087,15.809,101.17,14.895,101.17,13.764L101.17,13.764z M110.45,13.764c0-1.13,0.917-2.049,2.047-2.049
				s2.047,0.919,2.047,2.049c0,1.131-0.915,2.045-2.047,2.045C111.367,15.809,110.45,14.895,110.45,13.764L110.45,13.764z
				 M110.45,13.764"/>
		</g>
	</g>
	<g>
		<path fill="#999999" d="M254.616,6.119c-6.827-6.825-17.936-6.825-24.762-0.001c-6.828,6.827-6.828,17.937,0,24.766
			c6.826,6.822,17.935,6.822,24.76-0.003C261.44,24.055,261.44,12.945,254.616,6.119L254.616,6.119z M252.706,28.972
			c-5.772,5.772-15.169,5.775-20.943,0.001c-5.775-5.774-5.772-15.172,0-20.945c5.774-5.771,15.17-5.773,20.946,0.003
			C258.479,13.801,258.479,23.198,252.706,28.972L252.706,28.972z M235.704,13.764c0-1.13,0.913-2.049,2.047-2.049
			c1.131,0,2.043,0.919,2.043,2.049c0,1.131-0.912,2.045-2.043,2.045C236.617,15.809,235.704,14.895,235.704,13.764L235.704,13.764z
			 M244.982,13.764c0-1.13,0.92-2.049,2.048-2.049c1.13,0,2.046,0.919,2.046,2.049c0,1.131-0.914,2.045-2.046,2.045
			C245.902,15.809,244.982,14.895,244.982,13.764L244.982,13.764z M249.818,22.142c-1.268,2.936-4.236,4.828-7.564,4.828
			c-3.399,0-6.388-1.901-7.612-4.852c-0.208-0.503,0.028-1.082,0.535-1.294c0.126-0.051,0.253-0.075,0.378-0.075
			c0.392,0,0.757,0.229,0.917,0.609c0.918,2.207,3.185,3.633,5.782,3.633c2.537,0,4.794-1.426,5.748-3.635
			c0.218-0.501,0.801-0.732,1.302-0.515C249.806,21.06,250.039,21.643,249.818,22.142L249.818,22.142z M249.818,22.142"/>
	</g>
	<g>
		<path fill="#999999" d="M75.095,6.144c-6.817-6.815-17.905-6.815-24.717,0c-6.817,6.813-6.817,17.901,0,24.715
			c6.812,6.814,17.899,6.814,24.715-0.002C81.904,24.045,81.904,12.957,75.095,6.144L75.095,6.144z M73.186,28.951
			c-5.762,5.767-15.143,5.767-20.902,0.002c-5.764-5.763-5.763-15.143,0-20.904c5.76-5.765,15.138-5.766,20.902,0.001
			C78.949,13.811,78.949,23.19,73.186,28.951L73.186,28.951z M70.181,24.429c0,0.634-0.512,1.146-1.145,1.146H56.435
			c-0.634,0-1.147-0.513-1.147-1.146c0-0.63,0.514-1.144,1.147-1.144h12.603C69.669,23.285,70.181,23.799,70.181,24.429
			L70.181,24.429z M56.322,14.653l-1.706-1.708c-0.404-0.405-0.404-1.06,0-1.466c0.404-0.405,1.063-0.405,1.466,0l3.115,3.114
			c0.006,0.005,0.008,0.011,0.01,0.017c0.384,0.37,0.622,0.891,0.622,1.464c0,1.129-0.914,2.044-2.042,2.044
			c-1.127,0-2.041-0.915-2.041-2.044C55.746,15.522,55.965,15.023,56.322,14.653L56.322,14.653z M70.854,11.479
			c0.403,0.406,0.403,1.061,0,1.467l-1.708,1.707c0.355,0.37,0.577,0.869,0.577,1.424c0,1.126-0.913,2.041-2.043,2.041
			c-1.127,0-2.043-0.915-2.043-2.041c0-0.576,0.237-1.095,0.62-1.467c0.006-0.006,0.009-0.009,0.014-0.016l3.115-3.115
			C69.792,11.074,70.449,11.074,70.854,11.479L70.854,11.479z M70.854,11.479"/>
	</g>
	<g>
		<path fill="#999999" d="M185.251,6.283c-6.732,6.737-6.732,17.696,0.002,24.435c6.732,6.734,17.693,6.734,24.429-0.002
			s6.734-17.695,0.002-24.43C202.946-0.45,191.985-0.45,185.251,6.283L185.251,6.283z M207.797,28.831
			c-5.694,5.694-14.964,5.696-20.661,0.003c-5.696-5.699-5.695-14.967,0-20.665c5.697-5.694,14.967-5.695,20.662,0.001
			C213.494,13.867,213.491,23.135,207.797,28.831L207.797,28.831z M193.884,14.853h-4.355c-0.563,0-1.024-0.461-1.024-1.026
			c0-0.568,0.461-1.023,1.024-1.023h4.355c0.564,0,1.024,0.455,1.024,1.023C194.908,14.392,194.448,14.853,193.884,14.853
			L193.884,14.853z M206.428,13.826c0,0.565-0.46,1.026-1.023,1.026h-4.356c-0.563,0-1.023-0.461-1.023-1.026
			c0-0.568,0.46-1.023,1.023-1.023h4.356C205.968,12.803,206.428,13.258,206.428,13.826L206.428,13.826z M204.95,22.095
			c-1.249,2.893-4.182,4.763-7.463,4.763c-3.354,0-6.302-1.88-7.513-4.786c-0.206-0.499,0.03-1.07,0.53-1.276
			c0.121-0.054,0.249-0.075,0.374-0.075c0.384,0,0.744,0.226,0.901,0.601c0.904,2.179,3.145,3.586,5.706,3.586
			c2.502,0,4.728-1.409,5.673-3.586c0.211-0.497,0.789-0.725,1.282-0.512C204.938,21.025,205.167,21.599,204.95,22.095
			L204.95,22.095z M204.95,22.095"/>
	</g>
</g>
</svg>
